<mxfile host="app.diagrams.net" modified="2023-05-16T09:08:59.623Z" agent="Mozilla/5.0 (Windows NT 10.0; Win64; x64) AppleWebKit/537.36 (KHTML, like Gecko) Chrome/113.0.0.0 Safari/537.36 Edg/113.0.1774.42" etag="DNU-6nItm6Nj9ycKNvcO" version="21.3.2" type="github">
  <diagram id="prtHgNgQTEPvFCAcTncT" name="Page-1">
    <mxGraphModel dx="611" dy="796" grid="1" gridSize="10" guides="1" tooltips="1" connect="1" arrows="1" fold="1" page="1" pageScale="1" pageWidth="827" pageHeight="1169" math="0" shadow="0">
      <root>
        <mxCell id="0" />
        <mxCell id="1" parent="0" />
        <mxCell id="W1CnCfXpH14r4FqVQnyT-1" value="图书服务&lt;br&gt;book" style="rounded=0;whiteSpace=wrap;html=1;" vertex="1" parent="1">
          <mxGeometry x="160" y="220" width="120" height="60" as="geometry" />
        </mxCell>
        <mxCell id="W1CnCfXpH14r4FqVQnyT-2" value="账户服务&lt;br&gt;account" style="rounded=0;whiteSpace=wrap;html=1;" vertex="1" parent="1">
          <mxGeometry x="420" y="220" width="120" height="60" as="geometry" />
        </mxCell>
        <mxCell id="W1CnCfXpH14r4FqVQnyT-3" value="Fegin客户端&lt;br&gt;fegin-client" style="rounded=0;whiteSpace=wrap;html=1;" vertex="1" parent="1">
          <mxGeometry x="294" y="320" width="120" height="60" as="geometry" />
        </mxCell>
        <mxCell id="W1CnCfXpH14r4FqVQnyT-5" value="" style="endArrow=none;dashed=1;html=1;rounded=0;exitX=0.017;exitY=0.65;exitDx=0;exitDy=0;exitPerimeter=0;" edge="1" parent="1" source="W1CnCfXpH14r4FqVQnyT-3">
          <mxGeometry width="50" height="50" relative="1" as="geometry">
            <mxPoint x="170" y="330" as="sourcePoint" />
            <mxPoint x="220" y="280" as="targetPoint" />
            <Array as="points">
              <mxPoint x="220" y="359" />
            </Array>
          </mxGeometry>
        </mxCell>
        <mxCell id="W1CnCfXpH14r4FqVQnyT-6" value="" style="endArrow=none;dashed=1;html=1;rounded=0;entryX=0.5;entryY=1;entryDx=0;entryDy=0;" edge="1" parent="1" target="W1CnCfXpH14r4FqVQnyT-2">
          <mxGeometry width="50" height="50" relative="1" as="geometry">
            <mxPoint x="400" y="360" as="sourcePoint" />
            <mxPoint x="468" y="280" as="targetPoint" />
            <Array as="points">
              <mxPoint x="450" y="360" />
              <mxPoint x="480" y="360" />
              <mxPoint x="480" y="290" />
            </Array>
          </mxGeometry>
        </mxCell>
        <mxCell id="W1CnCfXpH14r4FqVQnyT-7" value="" style="rounded=0;whiteSpace=wrap;html=1;" vertex="1" parent="1">
          <mxGeometry x="150" y="525" width="120" height="60" as="geometry" />
        </mxCell>
        <mxCell id="W1CnCfXpH14r4FqVQnyT-8" value="MySQL" style="shape=datastore;whiteSpace=wrap;html=1;" vertex="1" parent="1">
          <mxGeometry x="180" y="80" width="60" height="60" as="geometry" />
        </mxCell>
        <mxCell id="W1CnCfXpH14r4FqVQnyT-9" value="Redis" style="shape=datastore;whiteSpace=wrap;html=1;" vertex="1" parent="1">
          <mxGeometry x="440" y="80" width="60" height="60" as="geometry" />
        </mxCell>
      </root>
    </mxGraphModel>
  </diagram>
</mxfile>
